<?xml version="1.0" standalone="no"?>
<!DOCTYPE svg PUBLIC "-//W3C//DTD SVG 20010904//EN"
 "http://www.w3.org/TR/2001/REC-SVG-20010904/DTD/svg10.dtd">
<svg version="1.0" xmlns="http://www.w3.org/2000/svg"
 width="600.000000pt" height="600.000000pt" viewBox="0 0 600.000000 600.000000"
 preserveAspectRatio="xMidYMid meet">
<metadata>
Created by potrace 1.11, written by Peter Selinger 2001-2013
</metadata>
<g transform="translate(0.000000,600.000000) scale(0.100000,-0.100000)"
fill="#000000" stroke="none">
<path d="M2826 5982 c-3 -5 -38 -10 -78 -11 -39 -1 -77 -5 -82 -9 -6 -3 -31
-7 -56 -8 -25 0 -57 -4 -72 -8 -25 -7 -42 -10 -123 -20 -16 -2 -30 -4 -30 -5
0 -4 -39 -12 -62 -14 -13 0 -23 -5 -23 -11 0 -5 -3 -7 -6 -4 -5 6 -42 -3 -159
-38 -27 -8 -61 -17 -75 -20 -13 -3 -27 -10 -31 -15 -3 -6 -10 -9 -15 -8 -5 1
-16 0 -24 -3 -8 -3 -37 -14 -65 -23 -27 -10 -54 -22 -60 -26 -5 -5 -17 -9 -27
-9 -10 0 -18 -4 -18 -8 0 -5 -6 -9 -13 -9 -35 0 -382 -185 -370 -197 4 -4 0
-4 -10 0 -10 3 -17 1 -17 -5 0 -6 -5 -11 -11 -11 -12 0 -102 -61 -107 -72 -2
-5 -10 -8 -18 -8 -8 0 -14 -5 -14 -11 0 -5 -4 -8 -8 -5 -5 3 -15 -4 -22 -15
-8 -10 -18 -19 -23 -19 -8 0 -21 -10 -55 -40 -10 -8 -37 -30 -61 -49 -23 -19
-54 -43 -68 -55 -42 -36 -285 -276 -279 -276 3 0 -8 -15 -25 -32 -17 -18 -43
-49 -58 -68 -14 -19 -32 -39 -39 -43 -7 -5 -10 -12 -7 -18 4 -5 2 -9 -2 -9 -5
0 -36 -39 -69 -86 -32 -47 -65 -92 -72 -100 -7 -8 -11 -14 -8 -14 5 0 -34 -63
-54 -87 -5 -7 -10 -15 -10 -19 0 -4 -10 -23 -22 -43 -13 -20 -23 -38 -23 -41
-2 -12 -49 -96 -57 -101 -5 -3 -9 -9 -9 -13 3 -16 -12 -56 -21 -56 -5 0 -7 -4
-3 -9 3 -5 -2 -17 -11 -25 -8 -9 -13 -16 -10 -16 4 0 -3 -18 -14 -40 -11 -22
-18 -40 -15 -40 3 0 -1 -10 -10 -23 -8 -12 -16 -32 -18 -42 -2 -11 -7 -27 -10
-35 -10 -22 -67 -202 -71 -220 -2 -8 -6 -23 -11 -32 -4 -10 -5 -24 -2 -32 3
-8 2 -16 -3 -18 -4 -2 -9 -16 -11 -33 -2 -16 -6 -34 -9 -40 -3 -5 -7 -26 -9
-45 -2 -19 -6 -37 -10 -40 -4 -3 -7 -18 -6 -35 1 -16 -2 -37 -6 -45 -9 -19
-20 -117 -21 -197 -1 -35 -5 -63 -10 -63 -4 0 -8 -5 -8 -11 0 -5 4 -8 8 -5 5
3 9 -1 9 -9 0 -8 -3 -12 -7 -10 -4 2 -7 -9 -8 -26 0 -20 3 -27 11 -22 9 5 9 3
0 -8 -16 -20 -15 -221 1 -231 8 -5 7 -8 -3 -8 -11 0 -11 -3 -1 -15 10 -12 10
-15 -1 -15 -11 0 -11 -2 1 -10 11 -7 11 -10 2 -10 -7 0 -10 -5 -6 -11 4 -7 8
-37 10 -68 2 -31 8 -87 14 -126 6 -38 12 -87 14 -108 1 -22 9 -43 17 -48 9 -6
10 -9 2 -9 -9 0 -9 -10 0 -42 7 -24 13 -52 12 -63 0 -11 4 -23 9 -26 5 -4 9
-18 9 -33 0 -14 4 -26 10 -26 6 0 8 -3 5 -6 -4 -3 -2 -20 4 -37 5 -18 11 -36
12 -42 2 -8 26 -88 31 -105 1 -3 5 -13 8 -22 4 -10 10 -26 14 -35 8 -23 8 -24
17 -56 5 -15 12 -27 17 -27 5 0 6 -6 3 -14 -3 -8 -1 -17 5 -21 6 -3 11 -15 11
-26 0 -10 5 -19 10 -19 6 0 10 -9 10 -19 0 -11 5 -23 10 -26 6 -4 8 -11 5 -16
-4 -5 -1 -9 5 -9 6 0 9 -4 6 -9 -3 -5 1 -14 9 -21 8 -7 13 -16 10 -20 -3 -4 3
-18 13 -31 18 -25 45 -81 42 -88 -1 -2 2 -7 7 -10 4 -3 18 -24 29 -46 33 -62
93 -158 114 -182 10 -12 16 -24 13 -27 -4 -3 -1 -6 5 -6 7 0 12 -5 12 -10 0
-6 24 -41 52 -78 29 -37 56 -71 61 -77 66 -86 123 -148 238 -264 114 -113 159
-155 159 -146 0 2 15 -12 34 -30 18 -19 37 -35 41 -35 4 0 15 -8 24 -18 9 -9
33 -28 53 -42 21 -14 38 -28 38 -32 0 -5 7 -8 15 -8 8 0 15 -4 15 -10 0 -5 5
-10 11 -10 6 0 17 -6 24 -13 32 -28 43 -35 63 -41 12 -4 22 -12 22 -17 0 -5 4
-9 9 -9 12 0 114 -62 123 -75 4 -5 8 -7 8 -2 0 4 17 -3 38 -16 59 -37 296
-148 324 -151 3 -1 10 -4 14 -8 4 -5 16 -8 26 -8 10 0 18 -4 18 -10 0 -5 8
-10 18 -10 17 0 98 -26 116 -38 6 -3 17 -7 26 -9 62 -11 80 -16 80 -25 0 -5 4
-7 8 -4 5 3 33 -2 63 -10 30 -9 63 -16 74 -18 11 -1 25 -5 31 -8 6 -4 29 -8
52 -9 23 -2 42 -6 42 -9 0 -3 10 -6 23 -6 12 -1 40 -4 62 -9 22 -4 57 -8 77
-9 21 0 38 -3 38 -6 0 -4 29 -6 63 -6 35 -1 69 -4 75 -8 7 -4 12 -1 12 6 0 9
3 9 8 2 15 -22 297 -21 502 2 30 3 74 7 97 8 24 0 43 5 43 10 0 4 7 6 15 3 8
-4 17 -2 19 2 3 5 18 7 33 5 15 -1 32 0 38 4 5 4 19 7 30 7 11 0 25 4 31 8 7
4 29 9 49 13 47 7 62 11 102 23 17 5 34 7 37 3 3 -3 6 -1 6 5 0 5 6 10 14 10
16 0 121 30 151 44 11 4 43 16 70 25 28 9 70 26 95 37 25 12 51 20 58 19 6 -2
12 2 12 8 0 5 5 10 11 10 6 0 33 11 59 24 27 13 51 22 54 19 3 -4 6 -2 6 3 0
6 20 18 45 28 25 11 45 24 45 29 0 6 3 7 6 4 4 -3 18 3 32 13 13 11 29 20 33
20 5 0 39 19 76 43 38 24 71 44 76 45 4 1 17 11 29 22 12 11 25 20 29 20 4 0
14 6 21 13 7 7 38 30 68 52 30 21 65 50 78 63 12 12 22 20 22 17 0 -4 21 12
46 34 26 23 51 41 56 41 5 0 6 5 3 10 -3 6 -1 10 5 10 12 0 190 178 260 260
25 29 53 60 62 68 9 9 15 19 12 24 -3 4 0 8 6 8 6 0 23 20 39 45 15 24 31 42
35 38 3 -3 6 1 6 10 0 10 5 17 11 17 5 0 8 4 5 9 -4 5 -2 11 2 13 5 1 33 39
62 83 51 77 64 99 111 182 12 21 26 44 31 51 6 6 7 12 3 12 -5 0 0 9 10 20 10
11 14 20 9 20 -5 0 -4 4 1 8 16 12 36 52 30 61 -3 5 2 11 10 15 8 3 15 12 15
19 0 8 6 27 14 43 30 63 69 161 66 166 -1 2 5 16 14 32 8 16 13 33 10 38 -3 4
0 8 6 8 7 0 10 7 6 15 -3 8 -1 15 5 15 6 0 8 3 6 8 -3 4 0 18 6 32 6 14 11 32
11 40 1 8 4 20 8 26 4 6 9 21 12 35 3 13 10 44 17 69 6 25 12 50 13 55 4 13
16 75 21 100 2 11 4 20 5 20 1 0 3 18 4 40 1 23 6 47 10 54 9 15 15 69 18 173
1 37 5 65 10 62 4 -3 4 6 -2 20 -5 14 -5 28 -1 31 15 9 14 235 -1 253 -8 10
-9 13 -1 9 8 -5 10 5 7 35 -3 24 -6 76 -7 115 -1 40 -5 73 -8 73 -3 0 -7 24
-9 53 -1 28 -3 60 -3 70 -1 9 -4 17 -8 17 -3 0 -5 10 -5 23 1 12 0 27 -3 32
-7 13 -11 34 -14 65 -1 14 -6 31 -10 38 -5 6 -6 12 -3 12 3 0 1 12 -6 28 -6
15 -10 39 -9 55 1 15 -3 27 -9 27 -5 0 -10 14 -10 30 0 17 -5 30 -11 30 -5 0
-8 4 -5 8 3 5 -6 42 -20 83 -30 89 -31 92 -33 102 0 4 -7 20 -15 36 -9 16 -12
31 -9 35 4 3 1 6 -5 6 -6 0 -9 6 -6 14 3 7 -2 16 -10 19 -9 4 -13 13 -10 22 3
8 1 15 -6 15 -6 0 -9 4 -6 9 3 4 -1 17 -9 27 -8 10 -15 27 -15 37 0 9 -4 17
-10 17 -5 0 -10 7 -10 15 0 17 -20 56 -33 66 -5 3 -8 8 -7 10 2 5 -23 62 -30
69 -3 3 -14 22 -25 42 -38 69 -88 153 -94 158 -4 3 -18 23 -31 45 -13 22 -31
45 -40 52 -8 7 -11 13 -7 13 4 0 -4 12 -18 27 -14 15 -25 32 -25 37 0 5 -11
19 -25 32 -14 13 -25 26 -25 29 0 4 -6 12 -12 19 -7 7 -33 37 -58 66 -87 104
-321 330 -341 330 -6 0 -8 4 -4 9 3 5 -4 12 -15 16 -11 3 -20 10 -20 15 0 5
-16 18 -35 30 -20 12 -41 27 -48 34 -6 6 -28 23 -47 36 -19 13 -37 27 -40 30
-3 3 -17 11 -32 19 -15 8 -37 23 -48 33 -11 10 -20 16 -20 14 0 -5 -58 30 -85
51 -5 5 -32 19 -59 33 -28 14 -58 32 -68 40 -10 8 -22 15 -26 15 -4 1 -17 6
-29 13 -13 7 -23 10 -23 7 0 -4 -7 1 -16 9 -8 9 -22 16 -30 16 -8 0 -14 4 -14
10 0 5 -7 7 -15 4 -8 -4 -15 -1 -15 5 0 6 -9 11 -20 11 -11 0 -20 4 -20 8 0 5
-6 9 -12 9 -7 0 -33 9 -58 20 -77 35 -158 62 -164 56 -3 -4 -6 -2 -6 4 0 6
-15 14 -32 18 -18 4 -35 9 -38 10 -13 4 -96 28 -105 29 -5 1 -15 5 -21 8 -6 4
-27 8 -47 10 -21 1 -37 6 -37 10 0 4 -15 8 -33 8 -19 0 -37 3 -41 8 -4 4 -15
7 -24 8 -10 0 -33 4 -52 7 -19 4 -46 8 -60 10 -14 1 -29 5 -35 8 -5 2 -30 4
-55 4 -25 0 -47 3 -50 7 -3 4 -50 9 -103 10 -53 2 -97 6 -97 10 0 4 -11 3 -25
-2 -14 -5 -25 -6 -25 -2 0 4 -51 7 -114 7 -63 0 -112 -3 -109 -7 7 -12 -12 -9
-24 3 -6 6 -13 7 -17 1z"/>
</g>
</svg>
